<svg width="321" height="88" viewBox="0 0 321 88" fill="none" xmlns="http://www.w3.org/2000/svg">
<path d="M27.8 87.56C22.6 87.56 17.92 86.84 13.76 85.4C9.68 83.88 6.48 81.8 4.16 79.16C1.92 76.44 0.8 73.4 0.8 70.04C0.8 66.36 1.96 63.32 4.28 60.92C6.68 58.52 9.68 57.32 13.28 57.32C14 57.32 14.56 57.44 14.96 57.68C15.36 57.92 15.56 58.2 15.56 58.52C15.56 58.76 15.2 59.4 14.48 60.44C13.84 61.48 13.28 62.64 12.8 63.92C12.32 65.2 12.08 66.72 12.08 68.48C12.08 72.32 13.52 75.44 16.4 77.84C19.28 80.24 23.08 81.44 27.8 81.44C31.96 81.44 35.32 80.36 37.88 78.2C40.44 75.96 41.72 72.92 41.72 69.08C41.72 65.96 40.92 63.32 39.32 61.16C37.72 59 35.72 57.24 33.32 55.88C31 54.44 27.84 52.84 23.84 51.08C19.28 49.08 15.56 47.2 12.68 45.44C9.88 43.68 7.48 41.36 5.48 38.48C3.56 35.6 2.6 31.96 2.6 27.56C2.6 23.88 3.48 20.44 5.24 17.24C7.08 13.96 9.8 11.36 13.4 9.44C17 7.44 21.36 6.43999 26.48 6.43999C31.12 6.43999 35.28 7.12 38.96 8.48C42.64 9.84 45.52 11.72 47.6 14.12C49.68 16.52 50.72 19.28 50.72 22.4C50.72 26.08 49.6 29.12 47.36 31.52C45.2 33.84 42.44 35 39.08 35C37.64 35 36.92 34.56 36.92 33.68C36.92 33.52 37.2 32.96 37.76 32C38.4 30.96 38.96 29.8 39.44 28.52C39.92 27.16 40.16 25.6 40.16 23.84C40.16 20.56 38.88 17.84 36.32 15.68C33.76 13.52 30.48 12.44 26.48 12.44C22.16 12.44 18.84 13.68 16.52 16.16C14.2 18.56 13.04 21.52 13.04 25.04C13.04 27.76 13.8 30.08 15.32 32C16.84 33.92 18.72 35.56 20.96 36.92C23.2 38.2 26.32 39.72 30.32 41.48C35.12 43.64 39 45.64 41.96 47.48C45 49.32 47.56 51.8 49.64 54.92C51.72 57.96 52.76 61.76 52.76 66.32C52.76 72.8 50.56 77.96 46.16 81.8C41.84 85.64 35.72 87.56 27.8 87.56ZM87.9894 87.56C82.9494 87.56 78.5494 86.4 74.7894 84.08C71.0294 81.76 68.1094 78.52 66.0294 74.36C63.9494 70.12 62.9094 65.24 62.9094 59.72C62.9094 53.96 64.0694 48.88 66.3894 44.48C68.7094 40.08 71.9894 36.68 76.2294 34.28C80.5494 31.88 85.5094 30.68 91.1094 30.68C97.0294 30.68 101.589 32.24 104.789 35.36C108.069 38.48 109.709 42.24 109.709 46.64C109.709 49.68 108.869 52.6 107.189 55.4C105.589 58.2 103.189 60.48 99.9894 62.24C96.8694 64 93.1894 64.88 88.9494 64.88C86.5494 64.88 83.9494 64.48 81.1494 63.68C78.3494 62.8 76.9494 61.52 76.9494 59.84C76.9494 59.2 77.1094 58.64 77.4294 58.16C77.7494 57.68 78.1094 57.44 78.5094 57.44C78.7494 57.44 79.4694 57.68 80.6694 58.16C81.9494 58.56 83.5894 58.76 85.5894 58.76C89.9894 58.76 93.3894 57.56 95.7894 55.16C98.1894 52.76 99.3894 49.88 99.3894 46.52C99.3894 43.64 98.4294 41.16 96.5094 39.08C94.6694 37 92.1894 35.96 89.0694 35.96C84.3494 35.96 80.6694 38.04 78.0294 42.2C75.4694 46.28 74.1894 52.12 74.1894 59.72C74.1894 66.2 75.5494 71.28 78.2694 74.96C81.0694 78.56 85.0694 80.36 90.2694 80.36C96.6694 80.36 101.949 78.28 106.109 74.12C106.349 73.88 106.669 73.76 107.069 73.76C107.709 73.76 108.349 74.08 108.989 74.72C109.709 75.36 110.069 76.04 110.069 76.76C110.069 77 109.989 77.24 109.829 77.48C109.669 77.64 109.589 77.76 109.589 77.84C106.869 81.04 103.629 83.48 99.8694 85.16C96.1894 86.76 92.2294 87.56 87.9894 87.56ZM134.611 87.56C131.571 87.56 129.371 86.68 128.011 84.92C126.731 83.08 126.091 80.12 126.091 76.04V12.68C126.091 11.8 125.931 11.2 125.611 10.88C125.291 10.48 124.731 10.28 123.931 10.28H119.251L118.171 7.51999C120.251 5.6 122.651 4.04 125.371 2.84C128.091 1.56 130.531 0.919994 132.691 0.919994C133.731 0.919994 134.571 1.23999 135.211 1.88C135.851 2.52 136.171 3.36 136.171 4.4L135.931 76.4C135.931 77.6 136.211 78.52 136.771 79.16C137.331 79.8 138.131 80.12 139.171 80.12C141.171 80.12 142.971 79.36 144.571 77.84L146.731 80.6C144.891 82.68 142.851 84.36 140.611 85.64C138.371 86.92 136.371 87.56 134.611 87.56ZM167.307 87.56C164.267 87.56 162.067 86.68 160.707 84.92C159.427 83.08 158.787 80.12 158.787 76.04V12.68C158.787 11.8 158.627 11.2 158.307 10.88C157.987 10.48 157.427 10.28 156.627 10.28H151.947L150.867 7.51999C152.947 5.6 155.347 4.04 158.067 2.84C160.787 1.56 163.227 0.919994 165.387 0.919994C166.427 0.919994 167.267 1.23999 167.907 1.88C168.547 2.52 168.867 3.36 168.867 4.4L168.627 76.4C168.627 77.6 168.907 78.52 169.467 79.16C170.027 79.8 170.827 80.12 171.867 80.12C173.867 80.12 175.667 79.36 177.267 77.84L179.427 80.6C177.587 82.68 175.547 84.36 173.307 85.64C171.067 86.92 169.067 87.56 167.307 87.56ZM197.482 21.56C196.282 21.56 194.882 20.72 193.282 19.04C191.682 17.36 190.882 15.84 190.882 14.48C190.882 13.12 191.642 11.6 193.162 9.92C194.762 8.24 196.202 7.4 197.482 7.4C198.842 7.4 200.322 8.24 201.922 9.92C203.522 11.6 204.322 13.12 204.322 14.48C204.322 15.84 203.522 17.36 201.922 19.04C200.322 20.72 198.842 21.56 197.482 21.56ZM201.082 87.56C198.122 87.56 195.962 86.68 194.602 84.92C193.322 83.08 192.682 80.12 192.682 76.04V42.44C192.682 41.48 192.522 40.8 192.202 40.4C191.882 40 191.322 39.8 190.522 39.8H185.602L184.762 37.16C186.842 35.24 189.202 33.68 191.842 32.48C194.562 31.28 196.922 30.68 198.922 30.68C199.962 30.68 200.802 31 201.442 31.64C202.162 32.2 202.522 32.96 202.522 33.92V76.4C202.522 78.88 203.602 80.12 205.762 80.12C207.442 80.12 209.282 79.36 211.282 77.84L213.322 80.6C211.322 82.68 209.202 84.36 206.962 85.64C204.802 86.92 202.842 87.56 201.082 87.56ZM220.309 82.64L222.349 82.04C224.269 81.72 225.509 81 226.069 79.88C226.709 78.68 227.029 76.68 227.029 73.88V43.4C227.029 42.52 226.869 41.92 226.549 41.6C226.229 41.2 225.669 41 224.869 41H220.189L219.109 38.12C221.189 36.2 223.589 34.64 226.309 33.44C229.029 32.24 231.429 31.64 233.509 31.64C234.549 31.64 235.389 31.96 236.029 32.6C236.669 33.24 236.989 34.04 236.989 35V46.88H237.589C238.869 42 240.789 38.08 243.349 35.12C245.989 32.16 248.829 30.68 251.869 30.68C254.909 30.68 257.389 31.68 259.309 33.68C261.309 35.6 262.309 38.28 262.309 41.72C262.309 44.44 261.309 46.72 259.309 48.56C257.309 50.4 254.789 51.32 251.749 51.32C250.309 51.32 249.589 50.96 249.589 50.24C249.589 50 249.869 49.44 250.429 48.56C250.989 47.68 251.469 46.8 251.869 45.92C252.269 45.04 252.469 44 252.469 42.8C252.469 41.44 252.149 40.4 251.509 39.68C250.869 38.88 250.029 38.48 248.989 38.48C247.309 38.48 245.549 39.52 243.709 41.6C241.869 43.68 240.269 47 238.909 51.56C237.629 56.12 236.989 61.92 236.989 68.96C236.989 72.24 237.229 74.92 237.709 77C238.269 79 239.189 80.88 240.469 82.64L241.789 84.32L240.469 86H221.389L220.309 82.64ZM293.807 87.56C285.647 87.56 279.167 85 274.367 79.88C269.567 74.68 267.167 67.72 267.167 59C267.167 50.28 269.567 43.4 274.367 38.36C279.167 33.24 285.647 30.68 293.807 30.68C299.167 30.68 303.847 31.84 307.847 34.16C311.847 36.48 314.927 39.76 317.087 44C319.247 48.24 320.327 53.24 320.327 59C320.327 64.76 319.207 69.8 316.967 74.12C314.807 78.44 311.727 81.76 307.727 84.08C303.727 86.4 299.087 87.56 293.807 87.56ZM293.567 81.68C298.127 81.68 301.807 79.64 304.607 75.56C307.487 71.4 308.927 65.96 308.927 59.24C308.927 55.8 308.447 52.36 307.487 48.92C306.527 45.4 304.927 42.44 302.687 40.04C300.527 37.56 297.687 36.32 294.167 36.32C289.447 36.32 285.647 38.4 282.767 42.56C279.967 46.72 278.567 52.24 278.567 59.12C278.567 66 279.887 71.48 282.527 75.56C285.247 79.64 288.927 81.68 293.567 81.68Z" fill="white"/>
</svg>
