<svg width="346" height="97" viewBox="0 0 346 97" fill="none" xmlns="http://www.w3.org/2000/svg">
<path d="M54.7199 27.7202C51.3599 25.8802 47.9199 24.3602 44.3999 23.1602C40.9599 21.9602 37.7199 21.3602 34.6799 21.3602C30.9199 21.3602 27.9599 22.1202 25.7999 23.6402C23.6399 25.1602 22.5599 27.4402 22.5599 30.4802C22.5599 32.5602 23.3599 34.4402 24.9599 36.1202C26.6399 37.7202 28.7599 39.1602 31.3199 40.4402C33.9599 41.7202 36.6799 42.8802 39.4799 43.9202C42.0399 44.8802 44.5599 46.0402 47.0399 47.4002C49.5999 48.6802 51.8799 50.3202 53.8799 52.3202C55.8799 54.2402 57.4799 56.6802 58.6799 59.6402C59.8799 62.5202 60.4799 66.0802 60.4799 70.3202C60.4799 74.8002 59.3199 78.9602 56.9999 82.8002C54.6799 86.6402 51.2799 89.7602 46.7999 92.1602C42.3199 94.4802 36.7999 95.6402 30.2399 95.6402C26.8799 95.6402 23.4399 95.3202 19.9199 94.6802C16.4799 93.9602 13.0799 92.9202 9.71991 91.5602C6.35991 90.1202 3.11991 88.3202 -8.77082e-05 86.1602L7.67991 72.6002C9.75991 74.1202 11.9999 75.4802 14.3999 76.6802C16.8799 77.8002 19.3599 78.6802 21.8399 79.3202C24.3199 79.9602 26.5999 80.2802 28.6799 80.2802C30.7599 80.2802 32.8399 80.0002 34.9199 79.4402C37.0799 78.8002 38.8399 77.7602 40.1999 76.3202C41.6399 74.8802 42.3599 72.8802 42.3599 70.3202C42.3599 68.5602 41.7599 66.9602 40.5599 65.5202C39.4399 64.0802 37.8799 62.7602 35.8799 61.5602C33.9599 60.3602 31.8399 59.3202 29.5199 58.4402C26.7999 57.4002 23.9999 56.2002 21.1199 54.8402C18.2399 53.4802 15.5199 51.8402 12.9599 49.9202C10.4799 47.9202 8.43991 45.4802 6.83991 42.6002C5.31991 39.6402 4.55991 36.0402 4.55991 31.8002C4.55991 26.6802 5.67991 22.2402 7.91991 18.4802C10.2399 14.7202 13.4799 11.7602 17.6399 9.60017C21.7999 7.36017 26.5999 6.12017 32.0399 5.88017C39.1599 5.88017 44.9199 6.72017 49.3199 8.40017C53.7999 10.0802 57.7999 12.0802 61.3199 14.4002L54.7199 27.7202ZM100.561 96.1202C94.1609 96.1202 88.7209 94.9202 84.2409 92.5202C79.8408 90.1202 76.4808 86.8002 74.1608 82.5602C71.8408 78.3202 70.6808 73.4402 70.6808 67.9202C70.6808 62.6402 72.0408 57.8802 74.7609 53.6402C77.4809 49.4002 81.1209 46.0402 85.6808 43.5602C90.2409 41.0002 95.3209 39.7202 100.921 39.7202C108.441 39.7202 114.601 41.9202 119.401 46.3202C124.281 50.6402 127.441 56.9202 128.881 65.1602L88.0809 78.1202L84.3609 69.0002L113.881 59.0402L110.401 60.6002C109.761 58.5202 108.601 56.7202 106.921 55.2002C105.321 53.6002 102.881 52.8002 99.6009 52.8002C97.1209 52.8002 94.9209 53.4002 93.0009 54.6002C91.1609 55.7202 89.7209 57.3602 88.6809 59.5202C87.7209 61.6002 87.2409 64.0802 87.2409 66.9602C87.2409 70.2402 87.8409 73.0002 89.0409 75.2402C90.2409 77.4002 91.8809 79.0402 93.9609 80.1602C96.0409 81.2802 98.3609 81.8402 100.921 81.8402C102.761 81.8402 104.521 81.5202 106.201 80.8802C107.961 80.2402 109.681 79.4002 111.361 78.3602L118.801 90.8402C116.001 92.4402 112.961 93.7202 109.681 94.6802C106.481 95.6402 103.441 96.1202 100.561 96.1202ZM141.089 0.000171661H157.889V94.6802H141.089V0.000171661ZM175.191 0.000171661H191.991V94.6802H175.191V0.000171661ZM209.292 42.2402H226.092V94.6802H209.292V42.2402ZM208.932 23.6402C208.932 21.1602 209.892 19.1202 211.812 17.5202C213.812 15.9202 215.932 15.1202 218.172 15.1202C220.412 15.1202 222.452 15.9202 224.292 17.5202C226.212 19.1202 227.172 21.1602 227.172 23.6402C227.172 26.1202 226.212 28.1602 224.292 29.7602C222.452 31.2802 220.412 32.0402 218.172 32.0402C215.932 32.0402 213.812 31.2802 211.812 29.7602C209.892 28.1602 208.932 26.1202 208.932 23.6402ZM258.514 42.2402L260.074 56.6402L259.714 54.4802C261.234 51.3602 263.314 48.7202 265.954 46.5602C268.594 44.3202 271.194 42.6002 273.754 41.4002C276.394 40.2002 278.394 39.6002 279.754 39.6002L278.914 56.4002C274.994 55.9202 271.634 56.5602 268.834 58.3202C266.034 60.0802 263.874 62.4002 262.354 65.2802C260.834 68.1602 260.074 71.1202 260.074 74.1602V94.6802H243.394V42.2402H258.514ZM286.189 67.8002C286.189 62.4402 287.429 57.6402 289.909 53.4002C292.469 49.1602 296.029 45.8402 300.589 43.4402C305.149 40.9602 310.389 39.7202 316.309 39.7202C322.309 39.7202 327.509 40.9602 331.909 43.4402C336.309 45.8402 339.669 49.1602 341.989 53.4002C344.389 57.6402 345.589 62.4402 345.589 67.8002C345.589 73.1602 344.389 78.0002 341.989 82.3202C339.669 86.5602 336.309 89.9202 331.909 92.4002C327.509 94.8802 322.229 96.1202 316.069 96.1202C310.309 96.1202 305.149 95.0002 300.589 92.7602C296.109 90.5202 292.589 87.2802 290.029 83.0402C287.469 78.8002 286.189 73.7202 286.189 67.8002ZM303.109 67.9202C303.109 70.6402 303.669 73.1202 304.789 75.3602C305.909 77.5202 307.429 79.2402 309.349 80.5202C311.269 81.8002 313.429 82.4402 315.829 82.4402C318.469 82.4402 320.749 81.8002 322.669 80.5202C324.589 79.2402 326.069 77.5202 327.109 75.3602C328.149 73.1202 328.669 70.6402 328.669 67.9202C328.669 65.1202 328.149 62.6402 327.109 60.4802C326.069 58.3202 324.589 56.6002 322.669 55.3202C320.749 54.0402 318.469 53.4002 315.829 53.4002C313.429 53.4002 311.269 54.0402 309.349 55.3202C307.429 56.6002 305.909 58.3202 304.789 60.4802C303.669 62.6402 303.109 65.1202 303.109 67.9202Z" fill="white"/>
</svg>
