<svg fill="#999999" xmlns="http://www.w3.org/2000/svg"  viewBox="0 0 24 24" width="50px" height="50px"><path d="M18.25,3H5.75C4.233,3,3,4.233,3,5.75v12.5C3,19.767,4.233,21,5.75,21h12.5c1.517,0,2.75-1.233,2.75-2.75V5.75	C21,4.233,19.767,3,18.25,3z M9.237,16H7.063V9.962h2.174V16z M8.11,8.857C7.445,8.857,7,8.412,7,7.819	c0-0.589,0.445-1.033,1.186-1.033c0.665,0,1.105,0.445,1.105,1.033C9.291,8.412,8.851,8.857,8.11,8.857z M17,16h-2.107v-3.302	c0-0.912-0.562-1.123-0.773-1.123c-0.211,0-0.912,0.144-0.912,1.123c0,0.144,0,3.302,0,3.302h-2.174V9.962h2.174v0.845	c0.283-0.494,0.845-0.845,1.896-0.845S17,10.807,17,12.698V16z"/></svg>